<svg version="1.1" id="Layer_1" xmlns="http://www.w3.org/2000/svg" xmlns:xlink="http://www.w3.org/1999/xlink" x="0px" y="0px" viewBox="0 0 1133.9 1133.9" style="enable-background:new 0 0 1133.9 1133.9;" xml:space="preserve"><style type="text/css">.st0{fill:none;stroke:#373636;stroke-width:1.8;stroke-miterlimit:10;}.st1{fill:#363636;}</style><path class="st0" d="M0,1116.1"/><path class="st1" d="M467.3,931C211.6,931,3.5,723,3.5,467.2S211.6,3.5,467.3,3.5S931,211.5,931,467.2S723,931,467.3,931z M467.3,97.4c-203.9,0-369.9,165.9-369.9,369.9s165.9,369.9,369.9,369.9s369.9-165.9,369.9-369.9S671.3,97.4,467.3,97.4z"/><path class="st1" d="M786.9,766.6l324.8,286.8c18.5,16.4,20.8,44.4,4.8,62.4l0,0c-16,18.1-44,19.5-62.5,3L729.2,832.1"/></svg>