<svg version="1.1" xmlns="http://www.w3.org/2000/svg" x="0px" y="0px" width="16px" height="16px" viewBox="0 0 16 16" enable-background="new 0 0 16 16" xml:space="preserve">
<g>
	<g>
		<g>
			<path fill="#464646" d="M8.02,0.095L0.067,4.112v1.591h15.905V4.112L8.02,0.095z M3.595,4.112L8.02,1.877l4.425,2.234H3.595z"/>
			<path fill="#464646" d="M7.431,6.833c0,0,0.695-0.18,1.495-0.001C9.19,6.888,9.419,6.975,9.604,7.09
				c0.254,0.156,0.455,0.305,0.6,0.443L9.394,8.439C9.336,8.388,9.267,8.333,9.187,8.273c-0.083-0.06-0.177-0.117-0.279-0.17
				C8.804,8.05,8.691,8.005,8.569,7.972C8.444,7.938,8.314,7.919,8.176,7.919c-0.094,0-0.195,0.011-0.302,0.034
				C7.767,7.975,7.67,8.007,7.581,8.052c-0.087,0.044-0.16,0.104-0.216,0.18C7.307,8.306,7.28,8.395,7.28,8.495
				c0,0.201,0.094,0.351,0.283,0.448C7.752,9.041,8.041,9.14,8.431,9.24c0.232,0.056,0.465,0.131,0.698,0.227
				C9.361,9.561,9.57,9.683,9.757,9.83c0.185,0.148,0.334,0.329,0.447,0.542c0.113,0.214,0.17,0.475,0.17,0.782
				c-0.001,0.245-0.046,0.468-0.136,0.666c-0.093,0.198-0.217,0.37-0.374,0.519c-0.158,0.147-0.343,0.271-0.557,0.367
				c-0.121,0.057-0.249,0.099-0.382,0.136c-0.729,0.22-1.521,0.063-1.521,0.063c-0.327-0.061-0.624-0.16-0.889-0.303
				c-0.347-0.186-0.629-0.397-0.85-0.636l0.849-0.943c0.183,0.194,0.417,0.369,0.703,0.522c0.287,0.155,0.609,0.231,0.967,0.231
				c0.101,0,0.202-0.009,0.302-0.028c0.1-0.018,0.193-0.052,0.274-0.099s0.147-0.11,0.198-0.188
				c0.049-0.078,0.075-0.176,0.075-0.288c0-0.194-0.091-0.35-0.272-0.468c-0.183-0.115-0.491-0.228-0.924-0.334l-0.228-0.076
				c-0.534-0.151-0.942-0.371-1.225-0.659C6.101,9.347,5.96,8.976,5.96,8.523C5.958,8.04,6.115,7.646,6.427,7.339
				C6.68,7.091,7.019,6.924,7.431,6.833H7.405"/>
		</g>
		<path fill="#464646" d="M10.489,16h5.483c0-0.879-0.712-1.591-1.591-1.591h-0.001V7.611c0.264,0,0.478-0.214,0.478-0.478
			s-0.214-0.477-0.478-0.477H11.2c-0.264,0-0.477,0.213-0.477,0.477s0.213,0.478,0.477,0.478v6.798H4.839V7.612
			c0.264,0,0.478-0.215,0.478-0.479c0-0.263-0.214-0.476-0.478-0.476H1.659c-0.263,0-0.477,0.213-0.477,0.476
			c0,0.264,0.214,0.479,0.477,0.479v6.797h0c-0.879,0-1.591,0.712-1.591,1.591H5.55"/>
	</g>
</g>
</svg>